<svg xmlns="http://www.w3.org/2000/svg" width="600" height="600" viewBox="0 0 600 600">
  <defs>
    <linearGradient id="bg4" x1="0" y1="0" x2="1" y2="1">
      <stop offset="0" stop-color="#ffffff"/>
      <stop offset="1" stop-color="#f2f2f2"/>
    </linearGradient>
  </defs>
  <rect width="600" height="600" fill="url(#bg4)"/>

  <!-- Style: editorial composition (bag + sunglasses) -->
  <g fill="none" stroke="#111" stroke-linecap="round" stroke-linejoin="round">
    <!-- bag -->
    <path d="M185 260h230c22 0 40 18 40 40v200c0 22-18 40-40 40H185c-22 0-40-18-40-40V300c0-22 18-40 40-40z" stroke-width="14" opacity="0.92"/>
    <path d="M235 260c0-55 28-90 65-90s65 35 65 90" stroke-width="14" opacity="0.55"/>
    <!-- sunglasses -->
    <path d="M175 390c40-30 85-30 125 0" stroke-width="12" opacity="0.22"/>
    <path d="M300 390c40-30 85-30 125 0" stroke-width="12" opacity="0.22"/>
    <path d="M205 405c0 40 35 65 70 50 22-10 30-28 30-50 0-22-8-40-30-50-35-15-70 10-70 50z" stroke-width="12" opacity="0.35"/>
    <path d="M295 405c0 40 35 65 70 50 22-10 30-28 30-50 0-22-8-40-30-50-35-15-70 10-70 50z" stroke-width="12" opacity="0.35"/>
  </g>

  <circle cx="470" cy="150" r="55" fill="#111" opacity="0.05"/>
  <circle cx="140" cy="520" r="75" fill="#111" opacity="0.04"/>
</svg>

